# xmcd
#
# Track frame offsets:
#	150
#	17576
#	33836
#	57137
#	77850
#	96166
#	110395
#	121437
#	142397
#	157645
#	177093
#	188328
#
# Disc length: 2817 seconds
#
# Revision: 1
# Processed by: cddbd v1.5.2PL0 Copyright (c) Steve Scherf et al.
# Submitted via: audiograbber 1.83.01
#
DISCID=8d0aff0c
DTITLE=Banditos - Banditos
DYEAR=2015
DGENRE=Alt-Country
TTITLE0=The Breeze
TTITLE1=Waitin'
TTITLE2=Golden Grease
TTITLE3=No Good
TTITLE4=Ain't It Hard
TTITLE5=Still Sober (After All These Beers)
TTITLE6=Long Gone, Anyway
TTITLE7=Old Ways
TTITLE8=Can't Get Away
TTITLE9=Blue Mosey #2
TTITLE10=Cry Baby Cry
TTITLE11=Preachin' To The Choir
EXTD=
EXTT0=
EXTT1=
EXTT2=
EXTT3=
EXTT4=
EXTT5=
EXTT6=
EXTT7=
EXTT8=
EXTT9=
EXTT10=
EXTT11=
PLAYORDER=
